<svg xmlns="http://www.w3.org/2000/svg" width="162.07" height="45.316" viewBox="0 0 162.07 45.316"><g transform="translate(-98.93 -477)"><path d="M-1261,2584.28a14.266,14.266,0,0,0,1.77,4.14h0c.67.1,1.36.19,2.07.25s1.62.1,2.45.1a19.894,19.894,0,0,0,2.45-.1c.81-.1,1.39-.15,2.07-.25h0a14.289,14.289,0,0,0,1.78-4.14c-.8.2-1.62.37-2.45.5a25.926,25.926,0,0,1-3.86.29,25.989,25.989,0,0,1-3.869-.289c-.831-.13-1.641-.3-2.441-.5" transform="translate(1373.95 -2072.4)" fill="#feb922" fill-rule="evenodd"></path><path d="M-1258.31,2583.14a23.8,23.8,0,0,0,3.62.27,23.988,23.988,0,0,0,3.62-.27,24.32,24.32,0,0,0,3-.66v-.2a17.75,17.75,0,0,1-2.21-2.13c-.24-.27-.46-.54-.68-.82-.53.1-1.06.18-1.61.24a19.52,19.52,0,0,1-2.16.11,19.58,19.58,0,0,1-2.16-.11c-.55-.06-1.09-.14-1.61-.24-.22.28-.45.55-.68.82a18.494,18.494,0,0,1-2.21,2.13v.2a24.941,24.941,0,0,0,3,.66" transform="translate(1373.95 -2072.4)" fill="#feb922" fill-rule="evenodd"></path><path d="M-1254.69,2578a18.245,18.245,0,0,0,2-.11,2.955,2.955,0,0,0,.719-.09,21.706,21.706,0,0,1-2.7-6.12,21.732,21.732,0,0,1-2.71,6.12q.36.06.72.09a18.368,18.368,0,0,0,2,.11" transform="translate(1373.95 -2072.4)" fill="#feb922" fill-rule="evenodd"></path><path d="M-1252.11,2590.35c-.85.07-1.72.1-2.58.1a22.407,22.407,0,0,1-2.59-.1h-.54a14.374,14.374,0,0,0,3.13,2.63,14.57,14.57,0,0,0,3.12-2.63Z" transform="translate(1373.95 -2072.4)" fill="#feb922" fill-rule="evenodd"></path><path d="M-1272.75,2574.2a19.23,19.23,0,0,1,17.13-12.61c0-.35.06-.71.08-1.06v-.07a18.65,18.65,0,0,0-12.39,5.47,18.621,18.621,0,0,0-4.82,8.27" transform="translate(1373.95 -2072.4)" fill="#b3b3b3" fill-rule="evenodd"></path><path d="M-1253.76,2561.59a19.25,19.25,0,0,1,17.13,12.61,18.72,18.72,0,0,0-4.82-8.27,18.65,18.65,0,0,0-12.39-5.47v.07a4.74,4.74,0,0,0,.08,1.06" transform="translate(1373.95 -2072.4)" fill="#b3b3b3" fill-rule="evenodd"></path><path d="M-1269.56,2579.45a22.338,22.338,0,0,0,13-7.15,21.67,21.67,0,0,0,.93-4.32,20.22,20.22,0,0,1-4.51,6.37,20.239,20.239,0,0,1-9.39,5.1" transform="translate(1373.95 -2072.4)" fill="#b3b3b3" fill-rule="evenodd"></path><path d="M-1239.83,2579.45a22.371,22.371,0,0,1-13-7.15,22.4,22.4,0,0,1-.93-4.32,20.406,20.406,0,0,0,4.52,6.37,20.209,20.209,0,0,0,9.38,5.1" transform="translate(1373.95 -2072.4)" fill="#b3b3b3" fill-rule="evenodd"></path><path d="M-1259,2579.84a17.71,17.71,0,0,0,8.62,0l-.49-.6c-.53.1-1.07.18-1.63.24a20.128,20.128,0,0,1-2.19.12,20.053,20.053,0,0,1-2.186-.12c-.564-.06-1.114-.14-1.644-.24l-.48.6" transform="translate(1373.95 -2072.4)" fill="#d18f00" fill-rule="evenodd"></path><path d="M-1260.86,2585.1a26.751,26.751,0,0,0,12.33,0q.13-.409.24-.84c-.81.21-1.64.38-2.48.51a26.737,26.737,0,0,1-3.92.3,26.947,26.947,0,0,1-3.93-.3,25.1,25.1,0,0,1-2.47-.51c.07.29.15.57.23.84" transform="translate(1373.95 -2072.4)" fill="#d18f00" fill-rule="evenodd"></path><path d="M-1257.12,2591.06a29.235,29.235,0,0,0,4.86,0c.28-.27.55-.55.8-.84l-.56.05c-.88.08-1.78.11-2.67.11a21.82,21.82,0,0,1-2.68-.11l-.56-.05q.39.44.81.84" transform="translate(1373.95 -2072.4)" fill="#d18f00" fill-rule="evenodd"></path><path d="M-1256.39,2565.27v-.06a18.591,18.591,0,0,0,.83-4.68v-.07a18.652,18.652,0,0,0-12.39,5.47,18.6,18.6,0,0,0-5.47,12.39,18.67,18.67,0,0,0,12.09-5.16,18.7,18.7,0,0,0,4.92-7.89m4.82,25h-.54c-.85.07-1.72.1-2.58.1a22.407,22.407,0,0,1-2.59-.1h-.54a14.372,14.372,0,0,0,3.13,2.63,14.564,14.564,0,0,0,3.14-2.6Zm3.19-6c-.8.2-1.62.37-2.45.5a25.829,25.829,0,0,1-3.86.29,25.981,25.981,0,0,1-3.867-.289c-.833-.131-1.643-.3-2.443-.5a14.266,14.266,0,0,0,1.77,4.14h0c.67.1,1.36.19,2.07.25s1.62.1,2.45.1a19.894,19.894,0,0,0,2.45-.1c.81-.1,1.39-.15,2.07-.25h0a14.293,14.293,0,0,0,1.83-4.13Zm-9-6.45q.36.06.72.09a18.368,18.368,0,0,0,2,.11,18.309,18.309,0,0,0,2-.111,2.93,2.93,0,0,0,.719-.09,21.706,21.706,0,0,1-2.7-6.12,21.733,21.733,0,0,1-2.74,6.13Zm1.74-9.85a20.222,20.222,0,0,1-4.51,6.37,20.239,20.239,0,0,1-9.39,5.1,22.969,22.969,0,0,0-.49,2.5c-.1.72-.16,1.45-.19,2.21a14.38,14.38,0,0,0,9.86-5.1,20.768,20.768,0,0,0,4.72-11.05Zm4.74,11.35c-.53.1-1.06.18-1.61.24a19.524,19.524,0,0,1-2.16.11,19.462,19.462,0,0,1-2.16-.111c-.55-.06-1.09-.14-1.61-.24-.22.28-.45.55-.68.82a18.5,18.5,0,0,1-2.21,2.13v.2a24.934,24.934,0,0,0,3,.66,23.829,23.829,0,0,0,3.62.27,23.989,23.989,0,0,0,3.62-.27,24.277,24.277,0,0,0,3-.66v-.2a17.73,17.73,0,0,1-2.21-2.13,9.188,9.188,0,0,0-.6-.81Zm1.92-.27a14.341,14.341,0,0,0,9.85,5.1,19.725,19.725,0,0,0-.19-2.21,20.841,20.841,0,0,0-.49-2.5,20.21,20.21,0,0,1-9.38-5.1,20.408,20.408,0,0,1-4.52-6.37,20.2,20.2,0,0,0,4.73,11.09Zm3.08-29.65a2.26,2.26,0,0,1,2.26,2.26,2.27,2.27,0,0,1-2.26,2.27,2.281,2.281,0,0,1-2-1.25,3.873,3.873,0,0,0-1.51.93,3.782,3.782,0,0,0-1.1,2.39,5.491,5.491,0,0,1,1.35,3.52,20.279,20.279,0,0,1,8.93,5.23,20.289,20.289,0,0,1,6,14.41.83.83,0,0,1-.83.831,19.978,19.978,0,0,1-2.91-.21c.14.63.26,1.28.35,1.94a23.944,23.944,0,0,1,.23,3.29.83.83,0,0,1-.83.83,15.082,15.082,0,0,1-8.21-2.47,15.8,15.8,0,0,1-2.25,5.92,15.935,15.935,0,0,1-5.52,5.31.82.82,0,0,1-.84,0,16,16,0,0,1-5.51-5.3,16,16,0,0,1-2.24-5.92,15.1,15.1,0,0,1-8.21,2.47.83.83,0,0,1-.83-.83,25.607,25.607,0,0,1,.22-3.29c.09-.66.21-1.31.35-1.94a19.943,19.943,0,0,1-2.91.21.83.83,0,0,1-.83-.83,20.331,20.331,0,0,1,6-14.41,20.319,20.319,0,0,1,8.94-5.23,5.431,5.431,0,0,1,1.35-3.52,3.85,3.85,0,0,0-1.11-2.39,3.8,3.8,0,0,0-1.51-.93,2.26,2.26,0,0,1-2,1.25,2.27,2.27,0,0,1-2.27-2.27,2.27,2.27,0,0,1,2.27-2.26,2.25,2.25,0,0,1,2.16,1.6,5.42,5.42,0,0,1,2.54,1.44,5.519,5.519,0,0,1,1.4,2.38,5.367,5.367,0,0,1,2.67-.7,5.369,5.369,0,0,1,2.67.7,5.4,5.4,0,0,1,1.39-2.38,5.421,5.421,0,0,1,2.54-1.44,2.26,2.26,0,0,1,2.06-1.6Zm-7.92,11.12a18.578,18.578,0,0,0,.82,4.68.139.139,0,0,1,0,.06,18.8,18.8,0,0,0,4.92,7.89,18.7,18.7,0,0,0,12.1,5.16,18.7,18.7,0,0,0-5.47-12.39,18.65,18.65,0,0,0-12.39-5.47Z" transform="translate(1373.95 -2072.4)" fill="#1e1920"></path><path d="M-1256.37,2565.21a18.766,18.766,0,0,0,.75-3.62,19.23,19.23,0,0,0-17.13,12.61,18.072,18.072,0,0,0-.65,4.12,18.67,18.67,0,0,0,12.09-5.16,18.7,18.7,0,0,0,4.92-7.89Z" transform="translate(1373.95 -2072.4)" fill="#f2f3f5" fill-rule="evenodd"></path><path d="M-1253,2565.27a18.8,18.8,0,0,0,4.92,7.89,18.7,18.7,0,0,0,12.1,5.16,19.246,19.246,0,0,0-.65-4.121,19.25,19.25,0,0,0-17.13-12.61,18.744,18.744,0,0,0,.74,3.62Z" transform="translate(1373.95 -2072.4)" fill="#f2f3f5" fill-rule="evenodd"></path><path d="M-1239.83,2579.45a22.371,22.371,0,0,1-13-7.15,20,20,0,0,0,2.85,5.58l.07.09c.28.38.57.74.88,1.09a14.341,14.341,0,0,0,9.85,5.1,19.735,19.735,0,0,0-.19-2.21,20.835,20.835,0,0,0-.49-2.5" transform="translate(1373.95 -2072.4)" fill="#f2f3f5" fill-rule="evenodd"></path><path d="M-1259.43,2577.88a19.708,19.708,0,0,0,2.84-5.58,22.341,22.341,0,0,1-13,7.15,23.023,23.023,0,0,0-.49,2.5c-.1.72-.16,1.45-.19,2.21a14.379,14.379,0,0,0,9.86-5.1c.3-.35.6-.71.88-1.09Z" transform="translate(1373.95 -2072.4)" fill="#f2f3f5" fill-rule="evenodd"></path><path d="M-1207.16,2586.07h-5.31v-12.52h-7v12.52h-5.31v-28.56h5.31v11.35h7v-11.35h5.31Z" transform="translate(1373.95 -2072.4)" fill="#fff"></path><path d="M-1186.6,2586.07l-1.64-7.21h-7.45l-1.64,7.21h-5.31l7.07-28.68h7.21l7.09,28.68Zm-2.64-11.92-1.52-6.64c-.09-.4-.3-1.42-.62-3s-.51-2.7-.58-3.25c-.16,1.12-.38,2.36-.64,3.7s-.94,4.43-2,9.23Z" transform="translate(1373.95 -2072.4)" fill="#fff"></path><path d="M-1156.75,2586.07h-6.49l-8.82-20.69h-.26a24.814,24.814,0,0,1,.49,5.08v15.61h-4.92v-28.56h6.52l8.75,20.47h.22a27.653,27.653,0,0,1-.37-4.88v-15.59h4.88Z" transform="translate(1373.95 -2072.4)" fill="#fff"></path><path d="M-1140.94,2586.07h-5.3v-23.89h-5.47v-4.67h16.24v4.67h-5.47Z" transform="translate(1373.95 -2072.4)" fill="#fff"></path><path d="M-1118.28,2586.07l-1.64-7.21h-7.44l-1.64,7.21h-5.31l7.07-28.68h7.2l7.09,28.68Zm-2.64-11.92-1.52-6.64c-.09-.4-.3-1.42-.61-3s-.52-2.7-.58-3.25c-.17,1.12-.38,2.36-.65,3.7s-.93,4.43-2,9.23Z" transform="translate(1373.95 -2072.4)" fill="#fff"></path></g></svg>